<svg id="Layer_67" data-name="Layer 67" xmlns="http://www.w3.org/2000/svg" viewBox="0 0 150.84 160.61"><defs><style>.cls-1{fill:#0757ad;}.cls-2,.cls-4,.cls-5,.cls-7{fill:none;stroke-miterlimit:10;}.cls-2{stroke:#020101;}.cls-2,.cls-5,.cls-7{stroke-width:0.25px;}.cls-3{fill:#020101;}.cls-4{stroke:#353535;stroke-width:0.5px;}.cls-5{stroke:#4f5051;}.cls-6{opacity:0.6;}.cls-7{stroke:#fff;}</style></defs><title>phoneB</title><g id="Layer_70" data-name="Layer 70"><path class="cls-1" d="M66.62,95.55a2.38,2.38,0,0,0-1.22-.13,2.27,2.27,0,0,0-1-.1l-0.22,0a2.38,2.38,0,0,0-1.3-.24l-0.29,0a2.79,2.79,0,0,0-1.16-.43,7.48,7.48,0,0,0-.77,0l-0.29-.15c1.32-2,2.65-4,4-6C66.14,85.8,61.81,83.3,60,86S56.6,91,54.93,93.61v0A2.66,2.66,0,0,0,54,97.74a2.09,2.09,0,0,0,2.1,1.18h0.11a3.21,3.21,0,0,0,.88.4,2.13,2.13,0,0,0,2.18.57,2.28,2.28,0,0,0,.3.18,2,2,0,0,0,1.83.61l0.7-.08h0a2.24,2.24,0,0,0,2.49.76l3-.91C70.59,99.53,69.47,95,66.62,95.55Z"/><path class="cls-1" d="M75.94,92.4L73.5,96c0.22-2-2.52-3.43-4.3-2l-0.06.05a1.81,1.81,0,0,0-.4-1.46,2.52,2.52,0,0,0-.35-2,2.43,2.43,0,0,0-.64-1.57c-0.21-1.68-2.19-3.07-3.77-2a2.28,2.28,0,0,0-.84.61l-3.42,3.89a2.44,2.44,0,0,0-.5,2.5,2.34,2.34,0,0,0,.7,2.7,2.7,2.7,0,0,0,.81,1.5,2.47,2.47,0,0,0,1.15,1.58,1.86,1.86,0,0,0,.07.21,2.47,2.47,0,0,0,3.32,2.53,2.65,2.65,0,0,0,.42.86,3,3,0,0,0,1.83,2.7,2.51,2.51,0,0,0,4.59.87l8.17-12.18C82.05,92.24,77.72,89.73,75.94,92.4Z"/><path class="cls-1" d="M88.48,75.44L76.29,92c-1.91,2.6,2.43,5.09,4.32,2.52L92.8,78C94.7,75.37,90.37,72.87,88.48,75.44Z"/><path class="cls-1" d="M91.71,73.52c-4.6-1.37-11.85-13-17.35-9.13-2.77,1.95-4.83,6.46-6.79,9.19-2.63,3.67-5.87,7.22-6.72,11.77-0.35,1.88,1.75,4.27,3.67,2.82L64.75,88l-0.06.13,0,0.06h0c-0.09.2-.18,0.39-0.27,0.59-0.71,1.68.55,2.8,2,3l-0.44.57c-1.65,2.16,1.79,4.93,3.7,3.24a2.74,2.74,0,0,0,4.53.27A143.78,143.78,0,0,1,87.82,80.2a2.27,2.27,0,0,0,.49-2.71,11,11,0,0,0,2.06.85C93.47,79.26,94.79,74.44,91.71,73.52Z"/></g><path class="cls-2" d="M86.41,87l-0.58.79,0.74-1.15L85.74,88l1-1.79-1,1.41,0.94-1.86a12,12,0,0,1-1.28,1.88l1.42-1.88a5.48,5.48,0,0,1-1,1.51q0.53-1,1.11-1.89l-1.19,1.74,1-1.63L85.6,87.33A9.79,9.79,0,0,0,87,85.14a9.63,9.63,0,0,1-1.15,1.94L87.32,85"/><path class="cls-2" d="M87.56,84.82L86.4,86.72q0.69-1.24,1.49-2.42a9.91,9.91,0,0,1-1.44,2.61,13.25,13.25,0,0,1,1.89-2.61,11,11,0,0,1-2.17,2.87,15.87,15.87,0,0,1,1.77-2.34,19.56,19.56,0,0,1-1.7,2.45l2-3.07a17.18,17.18,0,0,1-1.85,2.64,20.27,20.27,0,0,1,1.94-3.26,16.65,16.65,0,0,1-1.69,2.51l1.86-3a10,10,0,0,1-2,3.07,16,16,0,0,1,2.17-3.32,23,23,0,0,0-1.73,2.86,24.18,24.18,0,0,1,2.27-3.29l-1.59,3.08a19,19,0,0,1,2.21-3.6,23.75,23.75,0,0,1-1.84,2.93,11.69,11.69,0,0,1,2.13-3.29,32.64,32.64,0,0,1-2.26,3.14,25.08,25.08,0,0,1,2.7-4l-2.23,2.71a23.42,23.42,0,0,1,2.61-3.36A15.19,15.19,0,0,1,88.65,83a24.91,24.91,0,0,1,2.61-3.64,12.66,12.66,0,0,1-1.93,2.44l2.74-3.15A19.26,19.26,0,0,0,90,81.19l2.07-2.94A9.82,9.82,0,0,1,90,81l2.58-3.66A13.1,13.1,0,0,1,90.77,80q1-1.43,2-2.77L91,79.75l1.7-2.65a16,16,0,0,1-1.92,2.62,10.42,10.42,0,0,0,1.91-2.49,14.82,14.82,0,0,1-2.28,3.37L93,77.85a18.21,18.21,0,0,1-2.23,2.84,7.35,7.35,0,0,1,1.19-1.81l-1.77,2.82a6.68,6.68,0,0,1,1.49-2A20,20,0,0,1,89.41,83a13.86,13.86,0,0,1,1.5-2.49Q89.73,82.22,88.68,84"/><path class="cls-3" d="M85.52,87.26L71.75,107c-0.37.53,0.5,1,.86,0.5L86.39,87.77C86.76,87.24,85.89,86.74,85.52,87.26Z"/><path class="cls-3" d="M92.88,76.38l-7.1,10.41c-0.36.53,0.5,1,.86,0.5l7.1-10.41C94.1,76.36,93.24,75.85,92.88,76.38Z"/><path class="cls-3" d="M72.12,107.22Q63.37,100.64,54,94.9a0.5,0.5,0,0,0-.5.86q9.32,5.74,18.07,12.33C72.13,108.47,72.63,107.61,72.12,107.22Z"/><path class="cls-3" d="M73.69,65L53.24,94.5c-0.37.53,0.5,1,.86,0.5L74.55,65.5C74.92,65,74.05,64.47,73.69,65Z"/><path class="cls-3" d="M74.34,64L74,64.41a0.5,0.5,0,0,0,.71.71L75,64.75A0.5,0.5,0,0,0,74.34,64Z"/><path class="cls-3" d="M76.89,64.73l-1.47-1c-0.53-.37-1,0.5-0.5.86l1.47,1C76.92,66,77.42,65.09,76.89,64.73Z"/><path class="cls-3" d="M93.42,76.11L76.3,64.28c-0.53-.37-1,0.5-0.5.86L92.92,77C93.45,77.34,93.95,76.48,93.42,76.11Z"/><path class="cls-3" d="M53.48,94.37l-0.18.11a0.49,0.49,0,0,0-.6.33l-0.08.25s0,0,0,0a3.86,3.86,0,0,0,.24,5.54,0.5,0.5,0,0,0,.71-0.71A2.89,2.89,0,0,1,54,95.23,0.5,0.5,0,0,0,53.48,94.37Z"/><path class="cls-3" d="M72,107.63C67,104.21,62,100.8,56.74,97.7a0.48,0.48,0,0,0-.28-0.07l-0.25-.3a0.49,0.49,0,0,0-.13-0.28,3.31,3.31,0,0,0-2.15-1.14l-0.3-.15a0.57,0.57,0,0,0-.43,0l-0.13.05h0a0.52,0.52,0,0,0-.19.2,0.51,0.51,0,0,0-.21.68,3.08,3.08,0,0,0,.69,3l0.1,0.33a0.49,0.49,0,0,0,.91.08v0a0.5,0.5,0,0,0,1-.07,0.5,0.5,0,0,0,.92-0.25l0-.71a5.31,5.31,0,0,1,.41.79c0.28,0.58,1.09.09,0.87-.48,4.76,2.88,9.37,6,14,9.11C72.08,108.85,72.58,108,72,107.63Z"/><path class="cls-3" d="M62.82,105.29a24.09,24.09,0,0,0-4.56-2.15c-1.69-.77-3-2.14-4.64-3-0.57-.29-1.08.58-0.5,0.86,1.59,0.8,2.83,2.12,4.44,2.89s3.31,1.17,4.76,2.24C62.83,106.53,63.33,105.67,62.82,105.29Z"/><path class="cls-3" d="M63.72,106.24c-1.67-.87-3.74-1.61-5.07-3a0.5,0.5,0,0,0-.71.71c1.4,1.44,3.51,2.21,5.27,3.13A0.5,0.5,0,0,0,63.72,106.24Z"/><path class="cls-3" d="M72.23,106.63l-1.38,1.29a0.5,0.5,0,0,0,.71.71l1.38-1.29A0.5,0.5,0,0,0,72.23,106.63Z"/><path class="cls-3" d="M72.81,106.19a6.45,6.45,0,0,1-.55.93,0.43,0.43,0,0,0-.61.19,3.33,3.33,0,0,1-.45.66,1.59,1.59,0,0,0-.59.58,0.42,0.42,0,0,0,0,.13l-0.22.25a0.5,0.5,0,0,0,.61.79,7.06,7.06,0,0,0,2.73-3C73.94,106.11,73.08,105.61,72.81,106.19Z"/><path class="cls-3" d="M68.84,110.26a21.62,21.62,0,0,1-7.66-4.92,0.49,0.49,0,0,0-.45-0.68H60.3a0.51,0.51,0,0,0-.35.85,22.77,22.77,0,0,0,8.63,5.71C69.18,111.45,69.44,110.48,68.84,110.26Z"/><path class="cls-3" d="M71.13,109a1.89,1.89,0,0,1-2.1,1,0.5,0.5,0,0,0-.27,1A2.91,2.91,0,0,0,72,109.53,0.5,0.5,0,0,0,71.13,109Z"/><path class="cls-3" d="M70.69,108.9a1,1,0,0,0,.27-0.84c0.07-1.2-1.7-2.54-3-2.21l-0.32-.1a1.62,1.62,0,0,0-.34-0.32,4.26,4.26,0,0,0-.44-0.54,0.46,0.46,0,0,0-.37-0.13,6.16,6.16,0,0,0-2-1.18,0.44,0.44,0,0,0-.24-0.45l-1.86-1c-0.86-.58-1.76-1.32-2.68-2a16.44,16.44,0,0,0-1.9-1.58,0.44,0.44,0,0,0-.69.27,3.07,3.07,0,0,0-3.4,1.4c-0.3.4,0.19,0.79,0.56,0.73l0.33,0a0.38,0.38,0,0,0,.44.29l0.2,0a0.5,0.5,0,0,0,.48.54l0.44,0a0.5,0.5,0,0,0,.33.57l0.84,0.25a0.52,0.52,0,0,0,.22.55,18.5,18.5,0,0,0,4.42,2,0.42,0.42,0,0,0,.13.49l0.75,0.66a0.47,0.47,0,0,0,.07.13,11.39,11.39,0,0,0,4.27,3.66,0.53,0.53,0,0,0,.75-0.36l0.18,0.06L68.36,110a0.52,0.52,0,0,0,.35.11,1.3,1.3,0,0,0,1.35-.08l0.07-.06H70.3a0.49,0.49,0,0,0,.38-0.79A1,1,0,0,0,70.69,108.9Z"/><path class="cls-3" d="M86.63,66.57c-2.2-2-7.92-7.9-10.95-4.63a0.53,0.53,0,0,0,0,.07,4.28,4.28,0,0,0-.88,1,0.45,0.45,0,0,0-.07.26l0,0a0.51,0.51,0,0,0-.11.2l-0.36.26c-0.51.37,0,1.24,0.5,0.86l1.36-1a0.5,0.5,0,0,0,.21-0.54l0.3-.31a0.53,0.53,0,0,0,.12-0.2l2.63-.21q0.53,0.29,1,.61,0.89,0.55,1.75,1.16a40.12,40.12,0,0,1,3.82,3.1A0.5,0.5,0,0,0,86.63,66.57Z"/><path class="cls-3" d="M91.69,69.4A52.7,52.7,0,0,0,84.85,65a0.5,0.5,0,0,0-.5.86,53.58,53.58,0,0,1,5,3.06c1.31,0.91,5.12,3,5,5,0,0.64,1,.64,1,0C95.45,71.82,93.13,70.51,91.69,69.4Z"/><path class="cls-3" d="M95.31,73.79l0-.1c0.21-.61-0.76-0.87-1-0.27a7,7,0,0,1-1.12,2.1h0l-0.08.1a0.41,0.41,0,0,0-.05.37L93,76.16a0.5,0.5,0,0,0,.79.61,20.82,20.82,0,0,0,1.75-2.29A0.45,0.45,0,0,0,95.31,73.79Z"/><path class="cls-3" d="M95.11,73.37c-1.61-2.47-4.41-4.19-7.22-5.7l-5.49-3.86a0.4,0.4,0,0,0-.44,0,5.86,5.86,0,0,0-2.42-1.4,0.46,0.46,0,0,0-.5.16c-1.69-.79-3.29-1-3.77.82a0.51,0.51,0,0,0,.23.56c0.32,0.14.63,0.31,0.93,0.47a8.35,8.35,0,0,0,2.73,2.4,0.47,0.47,0,0,0,.26.06c0.13,0.15.26,0.29,0.39,0.45a0.52,0.52,0,0,0,.76.1,0.43,0.43,0,0,0,.08.05L81,67.53a0.51,0.51,0,0,0,.45.32h0.15a0.46,0.46,0,0,0,.18.22l0.07,0a0.58,0.58,0,0,0,.31.18l0.5,0.28a0.39,0.39,0,0,0,.15.32L82.9,69h0L86,71.32a0.39,0.39,0,0,0,.37.06c0.4,0.25.81,0.5,1.23,0.74,1,0.81,2.06,1.63,3.09,2.43a4.41,4.41,0,0,0,2.45,1.31A1.67,1.67,0,0,0,94.91,74,0.45,0.45,0,0,0,95.11,73.37Z"/><path class="cls-3" d="M68.37,109.34a0.5,0.5,0,0,0,0,1A0.5,0.5,0,0,0,68.37,109.34Z"/><path class="cls-3" d="M63.77,106.68a0.5,0.5,0,0,0,0,1A0.5,0.5,0,0,0,63.77,106.68Z"/><g id="Layer_69" data-name="Layer 69"><path class="cls-4" d="M59.26,105.57l6.91,4.58c1,0.68,2.24,1.39,3.41,1"/><path class="cls-4" d="M69.51,111.11c1.2-.23,2-1.32,2.7-2.33l3.06-4.49"/><path class="cls-4" d="M73.9,106.11a8.65,8.65,0,0,0,1.4-1.87"/><path class="cls-4" d="M73.76,106l1.32-1.44"/><path class="cls-4" d="M74.64,104.85l0.51-.7"/><path class="cls-4" d="M73.68,106.09l1.34-1.6"/><path class="cls-4" d="M75.19,104.15l4.75-6.81"/><path class="cls-4" d="M80,97.27l8.51-12.19"/><path class="cls-4" d="M88.42,85a94.92,94.92,0,0,0,7.17-10.76"/><path class="cls-4" d="M92.42,69.9a5.2,5.2,0,0,1,3.07,4.51"/><path class="cls-4" d="M85.23,65.09a21.14,21.14,0,0,0,2.37,1.67l5,3.18"/><path class="cls-4" d="M77,60.73a4.4,4.4,0,0,1,2.89.72,32.87,32.87,0,0,1,5.48,3.7"/><path class="cls-4" d="M77.48,60.61a1.61,1.61,0,0,0-.93.28"/><path class="cls-4" d="M77.57,60.8a1.9,1.9,0,0,0-1.17.18"/><path class="cls-4" d="M77,60.8a1.74,1.74,0,0,0-1.17.65"/><path class="cls-4" d="M76.91,60.91c-1.65.61-2.7,2.2-3.63,3.7L70,69.84"/><path class="cls-4" d="M74.72,63.23a7.66,7.66,0,0,0-1.9,2.3l-2.24,3.56"/><path class="cls-4" d="M73.85,64.44l-2.14,2.91"/><path class="cls-4" d="M70.2,69.54L54.34,92.37"/><path class="cls-4" d="M54.39,92.21l-2.05,2.88a5.56,5.56,0,0,0-1.23,2.57,3.73,3.73,0,0,0,1,2.74,11.05,11.05,0,0,0,2.37,1.85l5,3.24"/><path class="cls-4" d="M54.42,92.37a16,16,0,0,1-2,2.86,4.47,4.47,0,0,0-1.1,3.24c0.22,1.36,1.4,2.33,2.51,3.14q3.17,2.32,6.47,4.45"/></g><path class="cls-5" d="M82.23,65.76a0.18,0.18,0,0,0-.21.15,0.49,0.49,0,0,0,.44,0,0.33,0.33,0,0,0-.29-0.17"/><path class="cls-5" d="M83.37,66.73q2,1.11,4,2.42"/><path class="cls-5" d="M62.35,101.41a1.41,1.41,0,1,1-.22-0.08"/><g id="Layer_71" data-name="Layer 71" class="cls-6"><path class="cls-7" d="M69,105.71c-1-.78-3,1-2.26,2.13a3.67,3.67,0,0,0,.74.46,4,4,0,0,1,.15.58,2.8,2.8,0,0,0,1.58.25c1,0,2.53-.69,2.33-2s-2.11-1.71-3.08-1.29c-0.45.2-2.77,1.71-1.33,2.11"/><path class="cls-7" d="M69.43,107.18c-0.63.79-1.23,2.68-1.86,3.13"/><path class="cls-7" d="M69.92,107.76a6.31,6.31,0,0,1-1,2.64"/><path class="cls-7" d="M70.31,107a10.57,10.57,0,0,0,1.17,1.27"/><path class="cls-7" d="M70,106.3a20.87,20.87,0,0,0,3.72-.39"/><path class="cls-7" d="M69.82,106.88c-0.43-.81-0.81-1.77-1.27-2.54"/><path class="cls-7" d="M68.35,106.49a13.78,13.78,0,0,0-2.25-1.56"/><path class="cls-7" d="M66.2,106.88c-1.21.07-2.33-.28-3.52-0.29"/><path class="cls-7" d="M65,107.37c-0.42,0-.84,0-1.25,0a1.86,1.86,0,0,0,0,.86"/><path class="cls-7" d="M65.91,108.55a3.26,3.26,0,0,0-1,.68"/><path class="cls-7" d="M67,108.94l-0.59.29"/><path class="cls-7" d="M68.55,104.24a4.51,4.51,0,0,1-.79-1.36,13,13,0,0,1,.58-1.83c0.06-.31.25-0.86,0.27-1.11,0.1-1.45-.87-1.84-1.63-2.86-0.55-.74-0.23-1.37-0.47-2.24a6.14,6.14,0,0,0-2.57-3.48c-1.36-1-.77-1.84-0.86-3.25s-0.67-.66-1.45-1.35a3.11,3.11,0,0,1-.51-1.49"/><path class="cls-7" d="M69.92,105.81c0.56-.48,1.12-0.4,1.47-0.93,0.14-.22,0-0.66.12-0.92a2.67,2.67,0,0,1,1.45-.91c1.11-.35,1.48-0.13,2.24-1s0.95-1.17,2.15-1.18"/><path class="cls-7" d="M69,99.35c1.17,0,3.14.23,3.71,1.12a3.74,3.74,0,0,0-.09.68c0.09,0.2.54,0.17,0.63,0.35a2.91,2.91,0,0,1,.15,1.27"/><path class="cls-7" d="M72.75,103.46c0.46,0.47,0,1.83.2,2.54"/><path class="cls-7" d="M66.39,105c-0.9.13-1.34-1.07-2.1-1.37a11.17,11.17,0,0,0-2.79-.29,5,5,0,0,1-2.93-.88,9.4,9.4,0,0,0-2-1.48A19,19,0,0,0,53,100"/><path class="cls-7" d="M64.83,103.75a7.76,7.76,0,0,0,2.93-.49"/><path class="cls-7" d="M68,102.38c0.92-.09,2.8,1.29,3.62,1.76"/><path class="cls-7" d="M68.25,100c-1.25.24-1.68,1.34-2.66,1.93-0.79.48-1.57,0.33-2.13,1.3"/><path class="cls-7" d="M65.61,101.6c-1.82.12-3.57-.38-5.36-0.39s-3.46.39-5.3,0.39"/><path class="cls-7" d="M64.44,106.69c-0.43-1-1.85-.79-2.74-1.05s-1.94-.92-2.93-1.2"/><path class="cls-7" d="M68.35,102c1.16-.85,2.42-2.09,2.35-3.72-0.05-1.16-.34-1.88.07-2.86s1.09-2.29,2.47-2.13"/><path class="cls-7" d="M70.8,96.22c0.57,0.41,1.39.62,2,1.08"/><path class="cls-7" d="M72.95,101a9.87,9.87,0,0,1,2.54-.29c0.78-.06,1.28-0.42,2-0.49"/><path class="cls-7" d="M67.67,103.36a9.46,9.46,0,0,0-.68-1.85,12.68,12.68,0,0,0-1.1-1.18,3.18,3.18,0,0,1-1-1.41c0-.41.39-1.18,0.38-1.7a7.37,7.37,0,0,1-1.63-.72,2.64,2.64,0,0,0,0-1.25"/><path class="cls-7" d="M65.12,97.3a2.05,2.05,0,0,0,1.56-.1"/><path class="cls-7" d="M68.64,99.16a1.27,1.27,0,0,0,.17-0.86,7.15,7.15,0,0,1,.47-0.94c0.3-.59.55-1.23-0.17-1.62a1.26,1.26,0,0,0,.76-1.16c-1.87.27-.8-2.51,0.82-1.68"/><path class="cls-7" d="M72.75,99.94c0.46-1,2.42-1.43,1-2.54,0.37-.54,1.2-0.32,1.5-0.92,0.43-.88-0.64-1.16-1.16-1.61,1.14-.26,2-1,3-1.29"/><path class="cls-7" d="M65.22,92.21c2.59,0,5.16-.8,7.73-0.68,1.38,0.06,2.38.88,3.76,0.58a41.82,41.82,0,0,0,4-1.47c1.27-.41,2.4-0.76,3.46.2"/><path class="cls-7" d="M73.73,91.72c1-.15,1.25-1.93,1.86-2.64"/><path class="cls-7" d="M75.2,89.28c1-.58,3.89,1.21,5.09,1.37"/><path class="cls-7" d="M70,106.44c-1.2-.62-2.59,1.28-1.06,1.46,1.3,0.15,1.58-1.09.13-1.23"/></g></svg>